<svg width="108" height="86" viewBox="0 0 108 86" fill="none" xmlns="http://www.w3.org/2000/svg">
<path d="M45.6426 44.8856C42.0193 39.8352 40.0564 33.421 40.4595 27.2184C40.8626 21.0157 43.4038 15.1447 47.6503 10.6057C51.8968 6.06673 57.5857 3.14056 63.7478 2.32579C69.9099 1.51103 76.1639 2.85809 81.4441 6.13746C86.7243 9.41683 90.7041 14.4256 92.7054 20.3103C94.7067 26.195 94.6056 32.5916 92.4194 38.4102C90.2331 44.2287 86.097 49.1092 80.7158 52.2201C75.3346 55.331 66.4031 59.0822 54.649 52.8235C61.5183 49.0072 63.5028 44.8856 63.5028 44.8856C67.4717 46.2595 72.0313 44.5302 75.2085 42.6934C78.3856 40.8567 80.8277 37.9752 82.1185 34.5398C83.4092 31.1044 83.4689 27.3277 82.2873 23.8533C81.1058 20.3788 78.756 17.4215 75.6385 15.4853C72.5209 13.5491 68.8284 12.7538 65.1902 13.2349C61.552 13.7159 58.1931 15.4436 55.6859 18.1235C53.1787 20.8034 51.6783 24.2698 51.4404 27.9319C51.2024 31.5941 52.0518 36.4084 54.1911 39.3902C54.1911 39.3902 50.6801 43.8171 45.6426 44.8856Z" fill="#123053"/>
<path d="M48.7835 48.3852C47.3946 47.0751 46.1484 45.6214 45.0658 44.0487L53.476 38.2593C54.1498 39.2381 54.9253 40.1427 55.7897 40.9581L48.7835 48.3852Z" fill="#09182A"/>
<path d="M63.3501 13.5923C72.5091 26.9506 66.7756 40.9602 63.2333 45.6311C59.691 50.302 54.7182 53.6861 49.0733 55.2674C43.4285 56.8487 37.4213 56.5403 31.968 54.3892C26.5148 52.2381 21.9147 48.3625 18.8694 43.3534C15.8241 38.3443 14.5007 32.4766 15.1011 26.6453C15.7014 20.8139 18.1926 15.339 22.1946 11.0554C26.1966 6.77179 31.4898 3.91472 37.2669 2.91987C43.0441 1.92501 48.389 3.02902 53.8857 5.65437C53.8857 5.65437 47.9324 9.47068 45.032 13.8976C43.6581 13.4396 42.5453 13.1769 39.1344 13.7643C35.7234 14.3516 32.5982 16.0385 30.2354 18.5676C27.8725 21.0967 26.4017 24.3293 26.0472 27.7722C25.6928 31.2152 26.4741 34.6795 28.2721 37.637C30.0701 40.5945 32.7861 42.8827 36.0058 44.1528C39.2255 45.4228 42.7723 45.6049 46.1051 44.6713C49.438 43.7376 52.374 41.7396 54.4654 38.9818C56.5568 36.224 60.6024 29.1626 54.6376 19.393C54.6376 19.393 55.7176 15.4241 63.3501 13.5923Z" fill="#BE5927"/>
<path d="M46.9629 3.18334C49.5637 3.73189 51.556 4.37468 53.8857 5.65437C49.9168 8.40209 47.1691 10.6919 45.032 13.8976C44.8793 13.7449 44.8793 13.8975 44.7263 13.7876C44.7263 13.7876 42.8948 8.24947 46.9629 3.18334Z" fill="#984720"/>
<path d="M6.17442 75.5001C4.09023 75.5001 2.54011 74.9009 1.52407 73.7025C0.508022 72.5041 0 70.8693 0 68.7981C0 66.727 0.508022 65.0987 1.52407 63.9133C2.54011 62.7279 4.09023 62.1352 6.17442 62.1352C8.25861 62.1352 9.80873 62.7279 10.8248 63.9133C11.8408 65.0987 12.3488 66.727 12.3488 68.7981C12.3488 70.8693 11.8408 72.5041 10.8248 73.7025C9.80873 74.9009 8.25861 75.5001 6.17442 75.5001ZM6.17442 74.699C7.32073 74.699 8.18697 74.1975 8.77315 73.1945C9.37236 72.1914 9.67196 70.726 9.67196 68.7981C9.67196 66.8833 9.37236 65.4308 8.77315 64.4409C8.18697 63.4378 7.32073 62.9363 6.17442 62.9363C5.02812 62.9363 4.15536 63.4378 3.55615 64.4409C2.96997 65.4308 2.67689 66.8833 2.67689 68.7981C2.67689 70.726 2.96997 72.1914 3.55615 73.1945C4.15536 74.1975 5.02812 74.699 6.17442 74.699Z" fill="white"/>
<path d="M13.7171 74.7619H14.175C14.4803 74.7619 14.6737 74.711 14.7551 74.6092C14.8467 74.4973 14.8925 74.2785 14.8925 73.9528V66.5645C14.8925 66.2999 14.867 66.1117 14.8161 65.9997C14.7653 65.8878 14.6584 65.8115 14.4956 65.7708C14.3429 65.73 14.0783 65.7046 13.7018 65.6944V65.1907H16.938L19.7315 72.4721H19.7773L22.5555 65.1907H25.6849V65.6944C25.3083 65.7046 25.0387 65.73 24.8758 65.7708C24.7232 65.8115 24.6214 65.8878 24.5705 65.9997C24.5196 66.1117 24.4942 66.2999 24.4942 66.5645V73.907C24.4942 74.1615 24.5196 74.3497 24.5705 74.4719C24.6214 74.5838 24.7283 74.6601 24.8911 74.7008C25.0539 74.7415 25.3185 74.7619 25.6849 74.7619V75.2656H21.5175V74.7619C21.894 74.7619 22.1637 74.7415 22.3266 74.7008C22.4894 74.6499 22.5912 74.5685 22.6319 74.4566C22.6827 74.3446 22.7082 74.1615 22.7082 73.907V66.5645H22.6777L19.3957 75.2656H18.9224L15.6099 66.5645H15.5794V73.9528C15.5794 74.2073 15.5896 74.3853 15.6099 74.4871C15.6405 74.5889 15.7066 74.6601 15.8084 74.7008C15.9203 74.7415 16.0984 74.7619 16.3426 74.7619H17.0448V75.2656H13.7171V74.7619Z" fill="white"/>
<path d="M35.0903 73.9986C35.2124 74.3141 35.3447 74.5227 35.4872 74.6245C35.6297 74.7161 35.8892 74.7619 36.2657 74.7619V75.2656H32.1442V74.7619H32.8311C32.9736 74.7619 33.0804 74.7263 33.1516 74.655C33.2229 74.5838 33.2585 74.4922 33.2585 74.3803C33.2585 74.2988 33.2432 74.2123 33.2127 74.1208L32.3273 71.5562H29.2133L28.3584 74.1666C28.3279 74.2683 28.3126 74.3599 28.3126 74.4413C28.3126 74.655 28.45 74.7619 28.7248 74.7619H29.4728V75.2656H26.2976V74.7619C26.6945 74.7619 26.9693 74.7059 27.1219 74.594C27.2746 74.4719 27.412 74.248 27.5341 73.9223L30.7092 65.1907H32.0068L35.0903 73.9986ZM32.1594 71.0525L30.7703 66.992H30.7245L29.3812 71.0525H32.1594Z" fill="white"/>
<path d="M36.9518 74.7619C37.3284 74.7619 37.598 74.7415 37.7609 74.7008C37.9237 74.6499 38.0306 74.5685 38.0814 74.4566C38.1323 74.3446 38.1578 74.1615 38.1578 73.907V66.5645C38.1578 66.2999 38.1323 66.1117 38.0814 65.9997C38.0306 65.8878 37.9237 65.8115 37.7609 65.7708C37.598 65.7199 37.3284 65.6944 36.9518 65.6944V65.1907H41.6687C42.7678 65.1907 43.5972 65.4044 44.1569 65.8318C44.7167 66.2592 44.9965 66.8698 44.9965 67.6636C44.9965 68.376 44.7828 68.951 44.3554 69.3886C43.928 69.816 43.353 70.0857 42.6304 70.1976V70.2282C43.2716 70.3808 43.7244 70.6658 43.989 71.083C44.2536 71.4901 44.4419 72.0752 44.5538 72.8385L44.5996 73.1438C44.6709 73.6323 44.8184 74.0241 45.0423 74.3192C45.2764 74.6143 45.5919 74.7619 45.9888 74.7619V75.2656H43.5005C43.2156 75.0417 42.9968 74.5736 42.8441 73.8613L42.3862 71.7547C42.3048 71.3476 42.1419 71.0525 41.8977 70.8693C41.6535 70.6759 41.3075 70.5792 40.8597 70.5792H40.0201V73.907C40.0201 74.1615 40.0455 74.3497 40.0964 74.4719C40.1473 74.5838 40.2542 74.6601 40.417 74.7008C40.5798 74.7415 40.8444 74.7619 41.2108 74.7619V75.2656H36.9518V74.7619ZM40.936 69.9686C41.6484 69.9686 42.1725 69.7956 42.5083 69.4496C42.8543 69.1036 43.0273 68.5795 43.0273 67.8773C43.0273 67.165 42.8543 66.6409 42.5083 66.305C42.1623 65.959 41.6382 65.786 40.936 65.786C40.5595 65.786 40.3101 65.8369 40.188 65.9387C40.0761 66.0303 40.0201 66.188 40.0201 66.4119V69.9686H40.936Z" fill="white"/>
<path d="M59.4904 75.5001C57.4062 75.5001 55.8561 74.9009 54.8401 73.7025C53.824 72.5041 53.316 70.8693 53.316 68.7981C53.316 66.727 53.824 65.0987 54.8401 63.9133C55.8561 62.7279 57.4062 62.1352 59.4904 62.1352C61.5746 62.1352 63.1247 62.7279 64.1408 63.9133C65.1568 65.0987 65.6648 66.727 65.6648 68.7981C65.6648 70.8693 65.1568 72.5041 64.1408 73.7025C63.1247 74.9009 61.5746 75.5001 59.4904 75.5001ZM59.4904 74.699C60.6367 74.699 61.503 74.1975 62.0891 73.1945C62.6883 72.1914 62.9879 70.726 62.9879 68.7981C62.9879 66.8833 62.6883 65.4308 62.0891 64.4409C61.503 63.4378 60.6367 62.9363 59.4904 62.9363C58.3441 62.9363 57.4713 63.4378 56.8721 64.4409C56.286 65.4308 55.9929 66.8833 55.9929 68.7981C55.9929 70.726 56.286 72.1914 56.8721 73.1945C57.4713 74.1975 58.3441 74.699 59.4904 74.699Z" fill="white"/>
<path d="M72.2079 75.4488C70.5491 75.4488 69.2872 75.0112 68.4222 74.136C67.5673 73.2506 67.1399 71.9887 67.1399 70.3503C67.1399 68.6304 67.5826 67.3125 68.468 66.3966C69.3533 65.4705 70.6152 65.0075 72.2537 65.0075C72.6404 65.0075 72.9813 65.0482 73.2765 65.1296C73.5818 65.2009 73.8922 65.2975 74.2076 65.4197C74.4417 65.5214 74.6096 65.5723 74.7114 65.5723C74.8131 65.5723 74.8895 65.557 74.9404 65.5265C74.9912 65.4858 75.037 65.4298 75.0777 65.3586L75.1541 65.1907H75.5357L75.6883 68.0758H75.3067C75.1642 67.3939 74.8589 66.8139 74.3908 66.3356C73.9329 65.8573 73.2663 65.6181 72.3911 65.6181C71.5668 65.6181 70.9155 65.8725 70.4372 66.3814C69.969 66.88 69.6485 67.4703 69.4755 68.1521C69.3126 68.8238 69.2312 69.4903 69.2312 70.1518C69.2312 71.4952 69.4755 72.6095 69.9639 73.4949C70.4524 74.3803 71.236 74.823 72.3148 74.823C73.2714 74.823 73.9685 74.6092 74.4061 74.1818C74.8539 73.7544 75.1846 73.2456 75.3983 72.6553L75.8105 72.869C75.7189 73.2354 75.5357 73.617 75.2609 74.0139C74.9963 74.4006 74.6096 74.7364 74.1008 75.0214C73.5919 75.3063 72.961 75.4488 72.2079 75.4488Z" fill="white"/>
<path d="M76.9294 74.7619C77.3059 74.7619 77.5756 74.7415 77.7384 74.7008C77.9012 74.6499 78.0081 74.5685 78.059 74.4566C78.1099 74.3446 78.1353 74.1615 78.1353 73.907V66.5798C78.1353 66.3152 78.1099 66.1269 78.059 66.015C78.0081 65.8929 77.9012 65.8115 77.7384 65.7708C77.5756 65.7199 77.3059 65.6944 76.9294 65.6944V65.1907H81.1883V65.6944C80.8118 65.6944 80.5421 65.7199 80.3793 65.7708C80.2164 65.8115 80.1096 65.8929 80.0587 66.015C80.018 66.1269 79.9976 66.3152 79.9976 66.5798V69.6786H84.3482V66.5798C84.3482 66.3152 84.3227 66.1269 84.2719 66.015C84.221 65.8929 84.1141 65.8115 83.9513 65.7708C83.7986 65.7199 83.534 65.6944 83.1575 65.6944V65.1907H87.4165V65.6944C87.0399 65.6944 86.7702 65.7199 86.6074 65.7708C86.4446 65.8115 86.3377 65.8929 86.2868 66.015C86.2461 66.1269 86.2258 66.3152 86.2258 66.5798V73.907C86.2258 74.1615 86.2512 74.3497 86.3021 74.4719C86.353 74.5838 86.4598 74.6601 86.6227 74.7008C86.7855 74.7415 87.0501 74.7619 87.4165 74.7619V75.2656H83.1575V74.7619C83.534 74.7619 83.8037 74.7415 83.9665 74.7008C84.1294 74.6499 84.2311 74.5685 84.2719 74.4566C84.3227 74.3446 84.3482 74.1615 84.3482 73.907V70.3197H79.9976V73.907C79.9976 74.1615 80.0231 74.3497 80.074 74.4719C80.1248 74.5838 80.2317 74.6601 80.3945 74.7008C80.5574 74.7415 80.8219 74.7619 81.1883 74.7619V75.2656H76.9294V74.7619Z" fill="white"/>
<path d="M93.1845 75.4488C91.5562 75.4488 90.3452 74.9807 89.5514 74.0444C88.7576 73.1082 88.3607 71.831 88.3607 70.2129C88.3607 68.5948 88.7576 67.3227 89.5514 66.3966C90.3452 65.4705 91.5562 65.0075 93.1845 65.0075C94.8128 65.0075 96.0238 65.4705 96.8176 66.3966C97.6114 67.3227 98.0083 68.5948 98.0083 70.2129C98.0083 71.831 97.6114 73.1082 96.8176 74.0444C96.0238 74.9807 94.8128 75.4488 93.1845 75.4488ZM93.1845 74.823C94.0801 74.823 94.7568 74.4311 95.2148 73.6475C95.6829 72.8639 95.917 71.719 95.917 70.2129C95.917 68.7169 95.6829 67.5822 95.2148 66.8088C94.7568 66.0252 94.0801 65.6334 93.1845 65.6334C92.289 65.6334 91.6071 66.0252 91.139 66.8088C90.681 67.5822 90.4521 68.7169 90.4521 70.2129C90.4521 71.719 90.681 72.8639 91.139 73.6475C91.6071 74.4311 92.289 74.823 93.1845 74.823Z" fill="white"/>
<path d="M106.825 73.9986C106.947 74.3141 107.079 74.5227 107.221 74.6245C107.364 74.7161 107.623 74.7619 108 74.7619V75.2656H103.878V74.7619H104.565C104.708 74.7619 104.815 74.7263 104.886 74.655C104.957 74.5838 104.993 74.4922 104.993 74.3803C104.993 74.2988 104.978 74.2123 104.947 74.1208L104.062 71.5562H100.948L100.093 74.1666C100.062 74.2683 100.047 74.3599 100.047 74.4413C100.047 74.655 100.184 74.7619 100.459 74.7619H101.207V75.2656H98.0319V74.7619C98.4288 74.7619 98.7036 74.7059 98.8562 74.594C99.0089 74.4719 99.1463 74.248 99.2684 73.9223L102.444 65.1907H103.741L106.825 73.9986ZM103.894 71.0525L102.505 66.992H102.459L101.115 71.0525H103.894Z" fill="white"/>
<path d="M24.8601 85.5946C25.1011 85.5946 25.2737 85.5816 25.3779 85.5555C25.4821 85.523 25.5505 85.4709 25.5831 85.3992C25.6157 85.3276 25.6319 85.2103 25.6319 85.0475V80.3483C25.6319 80.179 25.6157 80.0585 25.5831 79.9868C25.5505 79.9152 25.4821 79.8663 25.3779 79.8403C25.2737 79.8077 25.1011 79.7914 24.8601 79.7914V79.469H27.6347V79.7914C27.3742 79.7914 27.1886 79.8044 27.0779 79.8305C26.9736 79.8566 26.9053 79.9087 26.8727 79.9868C26.8401 80.0585 26.8238 80.179 26.8238 80.3483V84.8033C26.8238 85.0377 26.8532 85.2071 26.9118 85.3113C26.9769 85.409 27.0746 85.4709 27.2049 85.4969C27.3351 85.5164 27.5598 85.5262 27.879 85.5262C28.2502 85.5262 28.5368 85.4839 28.7387 85.3992C28.9471 85.3145 29.1099 85.1778 29.2272 84.9889C29.3444 84.7935 29.4519 84.5102 29.5496 84.1389H29.8036L29.6961 85.917H24.8601V85.5946Z" fill="white"/>
<path d="M37.5863 85.1061C37.6645 85.308 37.7492 85.4415 37.8403 85.5067C37.9315 85.5653 38.0976 85.5946 38.3386 85.5946V85.917H35.7008V85.5946H36.1404C36.2316 85.5946 36.3 85.5718 36.3456 85.5262C36.3912 85.4806 36.414 85.422 36.414 85.3504C36.414 85.2983 36.4042 85.2429 36.3847 85.1843L35.818 83.543H33.825L33.2779 85.2136C33.2584 85.2787 33.2486 85.3373 33.2486 85.3894C33.2486 85.5262 33.3365 85.5946 33.5124 85.5946H33.9911V85.917H31.959V85.5946C32.213 85.5946 32.3889 85.5588 32.4866 85.4871C32.5843 85.409 32.6722 85.2657 32.7504 85.0573L34.7824 79.469H35.6129L37.5863 85.1061ZM35.7106 83.2206L34.8215 80.6218H34.7922L33.9325 83.2206H35.7106Z" fill="white"/>
<path d="M40.278 80.2799C40.2258 80.091 40.1542 79.964 40.063 79.8989C39.9718 79.8272 39.8123 79.7914 39.5843 79.7914V79.469H42.0365V79.7914H41.5969C41.5122 79.7914 41.4503 79.8044 41.4112 79.8305C41.3787 79.85 41.3624 79.8891 41.3624 79.9477C41.3624 79.9868 41.3722 80.0454 41.3917 80.1236L42.5347 84.5786H42.5738L43.8146 79.6058H44.5864L45.9248 84.5883H45.9737L47.0385 80.2506C47.0776 80.0813 47.0972 79.9803 47.0972 79.9477C47.0972 79.8956 47.0776 79.8566 47.0385 79.8305C47.006 79.8044 46.9441 79.7914 46.8529 79.7914H46.2961V79.469H48.3477V79.7914C48.0806 79.7914 47.8885 79.85 47.7713 79.9673C47.654 80.078 47.5563 80.2897 47.4782 80.6023L46.042 85.917H45.1725L43.8927 81.2471H43.8536L42.6422 85.917H41.7727L40.278 80.2799Z" fill="white"/>
<path d="M55.3696 85.5946C55.6106 85.5946 55.7832 85.5816 55.8874 85.5555C55.9916 85.523 56.06 85.4709 56.0926 85.3992C56.1251 85.3276 56.1414 85.2103 56.1414 85.0475V80.3483C56.1414 80.179 56.1251 80.0585 56.0926 79.9868C56.06 79.9152 55.9916 79.8663 55.8874 79.8403C55.7832 79.8077 55.6106 79.7914 55.3696 79.7914V79.469H60.1177V81.0908H59.8734C59.7888 80.7586 59.6976 80.5079 59.5999 80.3385C59.5087 80.1692 59.3719 80.0454 59.1896 79.9673C59.0137 79.8891 58.7597 79.8501 58.4275 79.8501H57.7046C57.5548 79.8501 57.4538 79.8728 57.4017 79.9184C57.3561 79.964 57.3333 80.052 57.3333 80.1822V82.4879H58.408C58.6425 82.4879 58.8151 82.4651 58.9258 82.4195C59.043 82.3674 59.1277 82.2859 59.1798 82.1752C59.2319 82.0645 59.2807 81.8919 59.3263 81.6574H59.5608V83.7384H59.3263C59.2807 83.5039 59.2319 83.3346 59.1798 83.2303C59.1277 83.1196 59.043 83.0415 58.9258 82.9959C58.8151 82.9438 58.6425 82.9177 58.408 82.9177H57.3333V85.0377C57.3333 85.2071 57.3529 85.3276 57.3919 85.3992C57.431 85.4709 57.5124 85.523 57.6362 85.5555C57.7599 85.5816 57.9651 85.5946 58.2517 85.5946V85.917H55.3696V85.5946Z" fill="white"/>
<path d="M62.2198 85.5946C62.4608 85.5946 62.6334 85.5816 62.7376 85.5555C62.8418 85.523 62.9102 85.4709 62.9428 85.3992C62.9753 85.3276 62.9916 85.2103 62.9916 85.0475V80.3581C62.9916 80.1887 62.9753 80.0682 62.9428 79.9966C62.9102 79.9184 62.8418 79.8663 62.7376 79.8403C62.6334 79.8077 62.4608 79.7914 62.2198 79.7914V79.469H64.9456V79.7914C64.7046 79.7914 64.532 79.8077 64.4278 79.8403C64.3236 79.8663 64.2552 79.9184 64.2226 79.9966C64.1966 80.0682 64.1835 80.1887 64.1835 80.3581V85.0475C64.1835 85.2103 64.1998 85.3308 64.2324 85.409C64.2649 85.4806 64.3333 85.5295 64.4375 85.5555C64.5417 85.5816 64.7111 85.5946 64.9456 85.5946V85.917H62.2198V85.5946Z" fill="white"/>
<path d="M67.4863 85.5946C67.7273 85.5946 67.8999 85.5816 68.0041 85.5555C68.1083 85.523 68.1767 85.4709 68.2092 85.3992C68.2418 85.3276 68.2581 85.2103 68.2581 85.0475V80.3483C68.2581 80.179 68.2418 80.0585 68.2092 79.9868C68.1767 79.9152 68.1083 79.8663 68.0041 79.8403C67.8999 79.8077 67.7273 79.7914 67.4863 79.7914V79.469H70.5051C71.2085 79.469 71.7393 79.6058 72.0976 79.8793C72.4558 80.1529 72.6349 80.5437 72.6349 81.0517C72.6349 81.5076 72.4981 81.8756 72.2246 82.1557C71.951 82.4292 71.583 82.6018 71.1206 82.6735V82.693C71.5309 82.7907 71.8207 82.9731 71.9901 83.2401C72.1594 83.5006 72.2799 83.8751 72.3516 84.3636L72.3809 84.559C72.4265 84.8716 72.5209 85.1224 72.6642 85.3113C72.814 85.5002 73.0159 85.5946 73.2699 85.5946V85.917H71.6775C71.4951 85.7737 71.3551 85.4741 71.2574 85.0182L70.9643 83.67C70.9122 83.4095 70.808 83.2206 70.6516 83.1033C70.4953 82.9796 70.2739 82.9177 69.9873 82.9177H69.45V85.0475C69.45 85.2103 69.4663 85.3308 69.4988 85.409C69.5314 85.4806 69.5998 85.5295 69.704 85.5555C69.8082 85.5816 69.9775 85.5946 70.212 85.5946V85.917H67.4863V85.5946ZM70.0362 82.5269C70.4921 82.5269 70.8275 82.4162 71.0424 82.1948C71.2639 81.9733 71.3746 81.6379 71.3746 81.1885C71.3746 80.7326 71.2639 80.3971 71.0424 80.1822C70.821 79.9608 70.4856 79.8501 70.0362 79.8501C69.7952 79.8501 69.6356 79.8826 69.5574 79.9477C69.4858 80.0064 69.45 80.1073 69.45 80.2506V82.5269H70.0362Z" fill="white"/>
<path d="M75.4805 85.5946H75.7735C75.9689 85.5946 76.0927 85.562 76.1448 85.4969C76.2034 85.4253 76.2327 85.2852 76.2327 85.0768V80.3483C76.2327 80.179 76.2164 80.0585 76.1839 79.9868C76.1513 79.9152 76.0829 79.8663 75.9787 79.8403C75.881 79.8142 75.7117 79.7979 75.4707 79.7914V79.469H77.5419L79.3297 84.1292H79.359L81.1371 79.469H83.1399V79.7914C82.8989 79.7979 82.7263 79.8142 82.6221 79.8403C82.5244 79.8663 82.4592 79.9152 82.4267 79.9868C82.3941 80.0585 82.3778 80.179 82.3778 80.3483V85.0475C82.3778 85.2103 82.3941 85.3308 82.4267 85.409C82.4592 85.4806 82.5276 85.5295 82.6318 85.5555C82.7361 85.5816 82.9054 85.5946 83.1399 85.5946V85.917H80.4727V85.5946C80.7137 85.5946 80.8863 85.5816 80.9905 85.5555C81.0947 85.523 81.1599 85.4709 81.1859 85.3992C81.2185 85.3276 81.2348 85.2103 81.2348 85.0475V80.3483H81.2152L79.1148 85.917H78.8119L76.6919 80.3483H76.6723V85.0768C76.6723 85.2396 76.6789 85.3536 76.6919 85.4187C76.7114 85.4839 76.7538 85.5295 76.8189 85.5555C76.8905 85.5816 77.0045 85.5946 77.1608 85.5946H77.6102V85.917H75.4805V85.5946Z" fill="white"/>
</svg>
