<svg width="16" height="15" viewBox="0 0 16 15" fill="none" xmlns="http://www.w3.org/2000/svg">
<path d="M14.7467 0.739763C14.7467 0.250596 14.1902 0.369346 14.0764 0.375179C12.8109 0.429858 11.5854 0.808252 10.5329 1.46935C7.32978 3.37226 2.64044 7.9131 0 14.6414H4.14044C4.49419 13.7659 4.90108 12.9101 5.35911 12.0781H11.6573C11.7511 13.3348 11.8307 14.3456 11.8653 14.6414H15.9996C15.9996 14.6414 14.7733 1.21726 14.7467 0.739763ZM7.11556 9.22726C8.20476 7.63089 9.48377 6.15561 10.928 4.82976C11.0013 4.76685 11.0827 4.77268 11.1218 4.82976C11.1486 4.89372 11.1623 4.96186 11.1622 5.0306C11.1622 5.0306 11.2964 7.02143 11.4498 9.20101L7.11556 9.22726Z" fill="white"/>
</svg>
