<svg width="16" height="16" viewBox="0 0 16 16" fill="none" xmlns="http://www.w3.org/2000/svg">
<path d="M11.9387 6.94076C11.4156 7.4012 10.7253 7.6812 9.96978 7.6812C9.21422 7.6812 8.52356 7.4012 8.00089 6.94076C7.47778 7.4012 6.78756 7.6812 6.032 7.6812C5.27644 7.6812 4.58578 7.4012 4.06311 6.94076C3.54 7.4012 2.84978 7.6812 2.09422 7.6812C1.92622 7.6812 1.76267 7.66431 1.60178 7.63765V14.4994C1.6 15.0336 2.04044 15.4665 2.58444 15.4665H13.4156C13.9596 15.4665 14.4 15.0336 14.4 14.4994V7.63765C14.2396 7.66431 14.0756 7.6812 13.9076 7.6812C13.152 7.68165 12.4613 7.40076 11.9387 6.94076ZM12.84 13.5834C12.2302 14.3496 11.1058 14.575 10.1898 14.2741C9.21822 13.9621 8.51156 13.0052 8.53289 12.0021C8.48444 10.763 9.59467 9.61809 10.8636 9.60298C11.5098 9.5492 12.1391 9.79454 12.6289 10.195C12.4284 10.4105 12.224 10.6239 12.0053 10.8239C11.5751 10.5679 11.056 10.3732 10.5529 10.5461C9.74044 10.7723 9.24889 11.7096 9.54933 12.4865C9.79778 13.2976 10.8076 13.743 11.5982 13.4021C12.008 13.2585 12.2782 12.8896 12.3964 12.4923C11.9271 12.4834 11.4573 12.4888 10.9884 12.4763C10.9876 12.2034 10.9858 11.9314 10.9876 11.6581C11.7698 11.6572 12.5547 11.655 13.3378 11.6612C13.3858 12.3305 13.2849 13.0461 12.84 13.5834ZM13.8667 0.533203H2.13333L0 4.43898C0 5.34787 0.639111 6.1052 1.49956 6.32254C1.66 6.36298 1.82578 6.39143 2 6.39143C3.10444 6.39143 4 5.5172 4 4.43854C4 5.51676 4.89556 6.39143 6 6.39143C7.10444 6.39143 8 5.51765 8 4.43898C8 5.5172 8.89556 6.39187 10 6.39187C11.1044 6.39187 12 5.51765 12 4.43898C12 5.5172 12.8956 6.39187 14 6.39187C14.1738 6.39187 14.3391 6.36343 14.5004 6.32298C15.3609 6.10476 16 5.34831 16 4.43898L13.8667 0.533203Z" fill="white"/>
</svg>
