<svg width="16" height="16" viewBox="0 0 16 16" fill="none" xmlns="http://www.w3.org/2000/svg">
<path d="M1.90489 0.75C0.753333 0.75 0 1.48733 0 2.46022C0 3.41489 0.732 4.16778 1.86089 4.16778H1.88356C3.05556 4.16778 3.78533 3.41178 3.78533 2.45711C3.76311 1.48511 3.05556 0.75 1.90489 0.75ZM12.0427 5.30467C10.256 5.30467 9.13644 6.26911 8.92933 6.94511V5.39933H5.42578C5.47156 6.22022 5.42578 15.2496 5.42578 15.2496H8.92933V9.91933C8.92933 9.62333 8.91556 9.32689 9.00533 9.11444C9.24667 8.52244 9.764 7.90733 10.6947 7.90733C11.9107 7.90733 12.464 8.81845 12.464 10.1522V15.2496H16V9.77267C16 6.722 14.2587 5.30467 12.0427 5.30467ZM0.403556 5.39978V15.2496H3.52178V5.39978H0.403556Z" fill="white"/>
</svg>
