<svg width="108" height="86" viewBox="0 0 108 86" fill="none" xmlns="http://www.w3.org/2000/svg">
<path d="M45.6426 44.8857C42.0193 39.8353 40.0564 33.4211 40.4595 27.2184C40.8626 21.0158 43.4038 15.1448 47.6503 10.6058C51.8968 6.0668 57.5857 3.14062 63.7478 2.32586C69.9099 1.5111 76.1639 2.85816 81.4441 6.13752C86.7243 9.41689 90.7041 14.4257 92.7054 20.3104C94.7067 26.1951 94.6056 32.5917 92.4194 38.4103C90.2331 44.2288 86.097 49.1093 80.7158 52.2202C75.3346 55.3311 66.4031 59.0822 54.649 52.8235C61.5183 49.0073 63.5028 44.8857 63.5028 44.8857C67.4717 46.2596 72.0313 44.5302 75.2085 42.6935C78.3856 40.8568 80.8277 37.9752 82.1185 34.5399C83.4092 31.1045 83.4689 27.3278 82.2873 23.8533C81.1058 20.3789 78.756 17.4216 75.6385 15.4854C72.5209 13.5492 68.8284 12.7539 65.1902 13.2349C61.552 13.716 58.1931 15.4437 55.6859 18.1236C53.1787 20.8035 51.6783 24.2698 51.4404 27.932C51.2024 31.5941 52.0518 36.4084 54.1911 39.3903C54.1911 39.3903 50.6801 43.8171 45.6426 44.8857Z" fill="#123053"/>
<path d="M48.7835 48.3853C47.3946 47.0751 46.1484 45.6215 45.0658 44.0487L53.476 38.2594C54.1498 39.2382 54.9253 40.1428 55.7897 40.9582L48.7835 48.3853Z" fill="#09182A"/>
<path d="M63.3501 13.5923C72.5091 26.9506 66.7756 40.9602 63.2333 45.6311C59.691 50.3021 54.7182 53.6862 49.0733 55.2675C43.4285 56.8487 37.4213 56.5403 31.968 54.3893C26.5148 52.2382 21.9147 48.3626 18.8694 43.3535C15.8241 38.3444 14.5007 32.4767 15.1011 26.6453C15.7014 20.814 18.1926 15.339 22.1946 11.0554C26.1966 6.77185 31.4898 3.91478 37.2669 2.91993C43.0441 1.92508 48.389 3.02908 53.8857 5.65444C53.8857 5.65444 47.9324 9.47075 45.032 13.8976C43.6581 13.4397 42.5453 13.177 39.1344 13.7643C35.7234 14.3517 32.5982 16.0386 30.2354 18.5677C27.8725 21.0968 26.4017 24.3293 26.0472 27.7723C25.6928 31.2152 26.4741 34.6796 28.2721 37.6371C30.0701 40.5946 32.7861 42.8828 36.0058 44.1528C39.2255 45.4228 42.7723 45.6049 46.1051 44.6713C49.438 43.7377 52.374 41.7397 54.4654 38.9819C56.5568 36.2241 60.6024 29.1627 54.6376 19.3931C54.6376 19.3931 55.7176 15.4241 63.3501 13.5923Z" fill="#BE5927"/>
<path d="M46.9629 3.1834C49.5637 3.73196 51.556 4.37474 53.8857 5.65444C49.9168 8.40215 47.1691 10.692 45.032 13.8976C44.8793 13.745 44.8793 13.8976 44.7263 13.7877C44.7263 13.7877 42.8948 8.24954 46.9629 3.1834Z" fill="#984720"/>
<path d="M6.17442 75.5002C4.09023 75.5002 2.54011 74.901 1.52407 73.7026C0.508022 72.5041 0 70.8694 0 68.7982C0 66.727 0.508022 65.0988 1.52407 63.9134C2.54011 62.728 4.09023 62.1353 6.17442 62.1353C8.25861 62.1353 9.80873 62.728 10.8248 63.9134C11.8408 65.0988 12.3488 66.727 12.3488 68.7982C12.3488 70.8694 11.8408 72.5041 10.8248 73.7026C9.80873 74.901 8.25861 75.5002 6.17442 75.5002ZM6.17442 74.6991C7.32073 74.6991 8.18697 74.1976 8.77315 73.1945C9.37236 72.1915 9.67196 70.7261 9.67196 68.7982C9.67196 66.8833 9.37236 65.4309 8.77315 64.4409C8.18697 63.4379 7.32073 62.9364 6.17442 62.9364C5.02812 62.9364 4.15536 63.4379 3.55615 64.4409C2.96997 65.4309 2.67689 66.8833 2.67689 68.7982C2.67689 70.7261 2.96997 72.1915 3.55615 73.1945C4.15536 74.1976 5.02812 74.6991 6.17442 74.6991Z" fill="#123053"/>
<path d="M13.7171 74.762H14.175C14.4803 74.762 14.6737 74.7111 14.7551 74.6093C14.8467 74.4974 14.8925 74.2786 14.8925 73.9529V66.5646C14.8925 66.3 14.867 66.1117 14.8161 65.9998C14.7653 65.8879 14.6584 65.8115 14.4956 65.7708C14.3429 65.7301 14.0783 65.7047 13.7018 65.6945V65.1907H16.938L19.7315 72.4722H19.7773L22.5555 65.1907H25.6849V65.6945C25.3083 65.7047 25.0387 65.7301 24.8758 65.7708C24.7232 65.8115 24.6214 65.8879 24.5705 65.9998C24.5196 66.1117 24.4942 66.3 24.4942 66.5646V73.9071C24.4942 74.1615 24.5196 74.3498 24.5705 74.4719C24.6214 74.5839 24.7283 74.6602 24.8911 74.7009C25.0539 74.7416 25.3185 74.762 25.6849 74.762V75.2657H21.5175V74.762C21.894 74.762 22.1637 74.7416 22.3266 74.7009C22.4894 74.65 22.5912 74.5686 22.6319 74.4566C22.6827 74.3447 22.7082 74.1615 22.7082 73.9071V66.5646H22.6777L19.3957 75.2657H18.9224L15.6099 66.5646H15.5794V73.9529C15.5794 74.2073 15.5896 74.3854 15.6099 74.4872C15.6405 74.5889 15.7066 74.6602 15.8084 74.7009C15.9203 74.7416 16.0984 74.762 16.3426 74.762H17.0448V75.2657H13.7171V74.762Z" fill="#123053"/>
<path d="M35.0903 73.9987C35.2124 74.3142 35.3447 74.5228 35.4872 74.6246C35.6297 74.7162 35.8892 74.762 36.2657 74.762V75.2657H32.1442V74.762H32.8311C32.9736 74.762 33.0804 74.7263 33.1516 74.6551C33.2229 74.5839 33.2585 74.4923 33.2585 74.3803C33.2585 74.2989 33.2432 74.2124 33.2127 74.1208L32.3273 71.5563H29.2133L28.3584 74.1666C28.3279 74.2684 28.3126 74.36 28.3126 74.4414C28.3126 74.6551 28.45 74.762 28.7248 74.762H29.4728V75.2657H26.2976V74.762C26.6945 74.762 26.9693 74.706 27.1219 74.594C27.2746 74.4719 27.412 74.248 27.5341 73.9224L30.7092 65.1907H32.0068L35.0903 73.9987ZM32.1594 71.0525L30.7703 66.992H30.7245L29.3812 71.0525H32.1594Z" fill="#123053"/>
<path d="M36.9518 74.762C37.3284 74.762 37.598 74.7416 37.7609 74.7009C37.9237 74.65 38.0306 74.5686 38.0814 74.4566C38.1323 74.3447 38.1578 74.1615 38.1578 73.9071V66.5646C38.1578 66.3 38.1323 66.1117 38.0814 65.9998C38.0306 65.8879 37.9237 65.8115 37.7609 65.7708C37.598 65.7199 37.3284 65.6945 36.9518 65.6945V65.1907H41.6687C42.7678 65.1907 43.5972 65.4045 44.1569 65.8319C44.7167 66.2593 44.9965 66.8699 44.9965 67.6637C44.9965 68.3761 44.7828 68.951 44.3554 69.3886C43.928 69.8161 43.353 70.0857 42.6304 70.1977V70.2282C43.2716 70.3809 43.7244 70.6658 43.989 71.0831C44.2536 71.4901 44.4419 72.0753 44.5538 72.8386L44.5996 73.1439C44.6709 73.6323 44.8184 74.0241 45.0423 74.3193C45.2764 74.6144 45.5919 74.762 45.9888 74.762V75.2657H43.5005C43.2156 75.0418 42.9968 74.5737 42.8441 73.8613L42.3862 71.7547C42.3048 71.3477 42.1419 71.0525 41.8977 70.8694C41.6535 70.676 41.3075 70.5793 40.8597 70.5793H40.0201V73.9071C40.0201 74.1615 40.0455 74.3498 40.0964 74.4719C40.1473 74.5839 40.2542 74.6602 40.417 74.7009C40.5798 74.7416 40.8444 74.762 41.2108 74.762V75.2657H36.9518V74.762ZM40.936 69.9687C41.6484 69.9687 42.1725 69.7957 42.5083 69.4497C42.8543 69.1037 43.0273 68.5796 43.0273 67.8774C43.0273 67.165 42.8543 66.6409 42.5083 66.3051C42.1623 65.9591 41.6382 65.7861 40.936 65.7861C40.5595 65.7861 40.3101 65.837 40.188 65.9387C40.0761 66.0303 40.0201 66.1881 40.0201 66.4119V69.9687H40.936Z" fill="#123053"/>
<path d="M59.4904 75.5002C57.4062 75.5002 55.8561 74.901 54.8401 73.7026C53.824 72.5041 53.316 70.8694 53.316 68.7982C53.316 66.727 53.824 65.0988 54.8401 63.9134C55.8561 62.728 57.4062 62.1353 59.4904 62.1353C61.5746 62.1353 63.1247 62.728 64.1408 63.9134C65.1568 65.0988 65.6648 66.727 65.6648 68.7982C65.6648 70.8694 65.1568 72.5041 64.1408 73.7026C63.1247 74.901 61.5746 75.5002 59.4904 75.5002ZM59.4904 74.6991C60.6367 74.6991 61.503 74.1976 62.0891 73.1945C62.6883 72.1915 62.9879 70.7261 62.9879 68.7982C62.9879 66.8833 62.6883 65.4309 62.0891 64.4409C61.503 63.4379 60.6367 62.9364 59.4904 62.9364C58.3441 62.9364 57.4713 63.4379 56.8721 64.4409C56.286 65.4309 55.9929 66.8833 55.9929 68.7982C55.9929 70.7261 56.286 72.1915 56.8721 73.1945C57.4713 74.1976 58.3441 74.6991 59.4904 74.6991Z" fill="#123053"/>
<path d="M72.2079 75.4489C70.5491 75.4489 69.2872 75.0113 68.4222 74.1361C67.5673 73.2507 67.1399 71.9888 67.1399 70.3503C67.1399 68.6305 67.5826 67.3126 68.468 66.3967C69.3533 65.4706 70.6152 65.0076 72.2537 65.0076C72.6404 65.0076 72.9813 65.0483 73.2765 65.1297C73.5818 65.2009 73.8922 65.2976 74.2076 65.4197C74.4417 65.5215 74.6096 65.5724 74.7114 65.5724C74.8131 65.5724 74.8895 65.5571 74.9404 65.5266C74.9912 65.4859 75.037 65.4299 75.0777 65.3587L75.1541 65.1907H75.5357L75.6883 68.0759H75.3067C75.1642 67.394 74.8589 66.8139 74.3908 66.3356C73.9329 65.8573 73.2663 65.6182 72.3911 65.6182C71.5668 65.6182 70.9155 65.8726 70.4372 66.3814C69.969 66.8801 69.6485 67.4703 69.4755 68.1522C69.3126 68.8238 69.2312 69.4904 69.2312 70.1519C69.2312 71.4952 69.4755 72.6096 69.9639 73.495C70.4524 74.3803 71.236 74.823 72.3148 74.823C73.2714 74.823 73.9685 74.6093 74.4061 74.1819C74.8539 73.7545 75.1846 73.2456 75.3983 72.6554L75.8105 72.8691C75.7189 73.2354 75.5357 73.6171 75.2609 74.014C74.9963 74.4007 74.6096 74.7365 74.1008 75.0215C73.5919 75.3064 72.961 75.4489 72.2079 75.4489Z" fill="#123053"/>
<path d="M76.9294 74.762C77.3059 74.762 77.5756 74.7416 77.7384 74.7009C77.9012 74.65 78.0081 74.5686 78.059 74.4566C78.1099 74.3447 78.1353 74.1615 78.1353 73.9071V66.5799C78.1353 66.3153 78.1099 66.127 78.059 66.0151C78.0081 65.8929 77.9012 65.8115 77.7384 65.7708C77.5756 65.7199 77.3059 65.6945 76.9294 65.6945V65.1907H81.1883V65.6945C80.8118 65.6945 80.5421 65.7199 80.3793 65.7708C80.2164 65.8115 80.1096 65.8929 80.0587 66.0151C80.018 66.127 79.9976 66.3153 79.9976 66.5799V69.6787H84.3482V66.5799C84.3482 66.3153 84.3227 66.127 84.2719 66.0151C84.221 65.8929 84.1141 65.8115 83.9513 65.7708C83.7986 65.7199 83.534 65.6945 83.1575 65.6945V65.1907H87.4165V65.6945C87.0399 65.6945 86.7702 65.7199 86.6074 65.7708C86.4446 65.8115 86.3377 65.8929 86.2868 66.0151C86.2461 66.127 86.2258 66.3153 86.2258 66.5799V73.9071C86.2258 74.1615 86.2512 74.3498 86.3021 74.4719C86.353 74.5839 86.4598 74.6602 86.6227 74.7009C86.7855 74.7416 87.0501 74.762 87.4165 74.762V75.2657H83.1575V74.762C83.534 74.762 83.8037 74.7416 83.9665 74.7009C84.1294 74.65 84.2311 74.5686 84.2719 74.4566C84.3227 74.3447 84.3482 74.1615 84.3482 73.9071V70.3198H79.9976V73.9071C79.9976 74.1615 80.0231 74.3498 80.074 74.4719C80.1248 74.5839 80.2317 74.6602 80.3945 74.7009C80.5574 74.7416 80.8219 74.762 81.1883 74.762V75.2657H76.9294V74.762Z" fill="#123053"/>
<path d="M93.1845 75.4489C91.5562 75.4489 90.3452 74.9808 89.5514 74.0445C88.7576 73.1082 88.3607 71.8311 88.3607 70.213C88.3607 68.5949 88.7576 67.3228 89.5514 66.3967C90.3452 65.4706 91.5562 65.0076 93.1845 65.0076C94.8128 65.0076 96.0238 65.4706 96.8176 66.3967C97.6114 67.3228 98.0083 68.5949 98.0083 70.213C98.0083 71.8311 97.6114 73.1082 96.8176 74.0445C96.0238 74.9808 94.8128 75.4489 93.1845 75.4489ZM93.1845 74.823C94.0801 74.823 94.7568 74.4312 95.2148 73.6476C95.6829 72.864 95.917 71.7191 95.917 70.213C95.917 68.717 95.6829 67.5823 95.2148 66.8088C94.7568 66.0252 94.0801 65.6334 93.1845 65.6334C92.289 65.6334 91.6071 66.0252 91.139 66.8088C90.681 67.5823 90.4521 68.717 90.4521 70.213C90.4521 71.7191 90.681 72.864 91.139 73.6476C91.6071 74.4312 92.289 74.823 93.1845 74.823Z" fill="#123053"/>
<path d="M106.825 73.9987C106.947 74.3142 107.079 74.5228 107.221 74.6246C107.364 74.7162 107.623 74.762 108 74.762V75.2657H103.878V74.762H104.565C104.708 74.762 104.815 74.7263 104.886 74.6551C104.957 74.5839 104.993 74.4923 104.993 74.3803C104.993 74.2989 104.978 74.2124 104.947 74.1208L104.062 71.5563H100.948L100.093 74.1666C100.062 74.2684 100.047 74.36 100.047 74.4414C100.047 74.6551 100.184 74.762 100.459 74.762H101.207V75.2657H98.0319V74.762C98.4288 74.762 98.7036 74.706 98.8562 74.594C99.0089 74.4719 99.1463 74.248 99.2684 73.9224L102.444 65.1907H103.741L106.825 73.9987ZM103.894 71.0525L102.505 66.992H102.459L101.115 71.0525H103.894Z" fill="#123053"/>
<path d="M24.8601 85.5947C25.1011 85.5947 25.2737 85.5816 25.3779 85.5556C25.4821 85.523 25.5505 85.4709 25.5831 85.3993C25.6157 85.3276 25.6319 85.2104 25.6319 85.0476V80.3484C25.6319 80.179 25.6157 80.0585 25.5831 79.9869C25.5505 79.9152 25.4821 79.8664 25.3779 79.8403C25.2737 79.8078 25.1011 79.7915 24.8601 79.7915V79.4691H27.6347V79.7915C27.3742 79.7915 27.1886 79.8045 27.0779 79.8306C26.9736 79.8566 26.9053 79.9087 26.8727 79.9869C26.8401 80.0585 26.8238 80.179 26.8238 80.3484V84.8033C26.8238 85.0378 26.8532 85.2071 26.9118 85.3114C26.9769 85.4091 27.0746 85.4709 27.2049 85.497C27.3351 85.5165 27.5598 85.5263 27.879 85.5263C28.2502 85.5263 28.5368 85.4839 28.7387 85.3993C28.9471 85.3146 29.1099 85.1778 29.2272 84.989C29.3444 84.7936 29.4519 84.5102 29.5496 84.139H29.8036L29.6961 85.9171H24.8601V85.5947Z" fill="#123053"/>
<path d="M37.5863 85.1062C37.6645 85.3081 37.7492 85.4416 37.8403 85.5067C37.9315 85.5654 38.0976 85.5947 38.3386 85.5947V85.9171H35.7008V85.5947H36.1404C36.2316 85.5947 36.3 85.5719 36.3456 85.5263C36.3912 85.4807 36.414 85.4221 36.414 85.3504C36.414 85.2983 36.4042 85.243 36.3847 85.1843L35.818 83.543H33.825L33.2779 85.2137C33.2584 85.2788 33.2486 85.3374 33.2486 85.3895C33.2486 85.5263 33.3365 85.5947 33.5124 85.5947H33.9911V85.9171H31.959V85.5947C32.213 85.5947 32.3889 85.5588 32.4866 85.4872C32.5843 85.409 32.6722 85.2658 32.7504 85.0573L34.7824 79.4691H35.6129L37.5863 85.1062ZM35.7106 83.2206L34.8215 80.6219H34.7922L33.9325 83.2206H35.7106Z" fill="#123053"/>
<path d="M40.278 80.28C40.2258 80.0911 40.1542 79.9641 40.063 79.899C39.9718 79.8273 39.8123 79.7915 39.5843 79.7915V79.4691H42.0365V79.7915H41.5969C41.5122 79.7915 41.4503 79.8045 41.4112 79.8306C41.3787 79.8501 41.3624 79.8892 41.3624 79.9478C41.3624 79.9869 41.3722 80.0455 41.3917 80.1237L42.5347 84.5786H42.5738L43.8146 79.6059H44.5864L45.9248 84.5884H45.9737L47.0385 80.2507C47.0776 80.0813 47.0972 79.9804 47.0972 79.9478C47.0972 79.8957 47.0776 79.8566 47.0385 79.8306C47.006 79.8045 46.9441 79.7915 46.8529 79.7915H46.2961V79.4691H48.3477V79.7915C48.0806 79.7915 47.8885 79.8501 47.7713 79.9674C47.654 80.0781 47.5563 80.2898 47.4782 80.6024L46.042 85.9171H45.1725L43.8927 81.2472H43.8536L42.6422 85.9171H41.7727L40.278 80.28Z" fill="#123053"/>
<path d="M55.3696 85.5947C55.6106 85.5947 55.7832 85.5816 55.8874 85.5556C55.9916 85.523 56.06 85.4709 56.0926 85.3993C56.1251 85.3276 56.1414 85.2104 56.1414 85.0476V80.3484C56.1414 80.179 56.1251 80.0585 56.0926 79.9869C56.06 79.9152 55.9916 79.8664 55.8874 79.8403C55.7832 79.8078 55.6106 79.7915 55.3696 79.7915V79.4691H60.1177V81.0909H59.8734C59.7888 80.7587 59.6976 80.5079 59.5999 80.3386C59.5087 80.1693 59.3719 80.0455 59.1896 79.9674C59.0137 79.8892 58.7597 79.8501 58.4275 79.8501H57.7046C57.5548 79.8501 57.4538 79.8729 57.4017 79.9185C57.3561 79.9641 57.3333 80.052 57.3333 80.1823V82.4879H58.408C58.6425 82.4879 58.8151 82.4651 58.9258 82.4195C59.043 82.3674 59.1277 82.286 59.1798 82.1753C59.2319 82.0646 59.2807 81.892 59.3263 81.6575H59.5608V83.7384H59.3263C59.2807 83.504 59.2319 83.3346 59.1798 83.2304C59.1277 83.1197 59.043 83.0415 58.9258 82.9959C58.8151 82.9438 58.6425 82.9178 58.408 82.9178H57.3333V85.0378C57.3333 85.2071 57.3529 85.3276 57.3919 85.3993C57.431 85.4709 57.5124 85.523 57.6362 85.5556C57.7599 85.5816 57.9651 85.5947 58.2517 85.5947V85.9171H55.3696V85.5947Z" fill="#123053"/>
<path d="M62.2198 85.5947C62.4608 85.5947 62.6334 85.5816 62.7376 85.5556C62.8418 85.523 62.9102 85.4709 62.9428 85.3993C62.9753 85.3276 62.9916 85.2104 62.9916 85.0476V80.3581C62.9916 80.1888 62.9753 80.0683 62.9428 79.9967C62.9102 79.9185 62.8418 79.8664 62.7376 79.8403C62.6334 79.8078 62.4608 79.7915 62.2198 79.7915V79.4691H64.9456V79.7915C64.7046 79.7915 64.532 79.8078 64.4278 79.8403C64.3236 79.8664 64.2552 79.9185 64.2226 79.9967C64.1966 80.0683 64.1835 80.1888 64.1835 80.3581V85.0476C64.1835 85.2104 64.1998 85.3309 64.2324 85.409C64.2649 85.4807 64.3333 85.5295 64.4375 85.5556C64.5417 85.5816 64.7111 85.5947 64.9456 85.5947V85.9171H62.2198V85.5947Z" fill="#123053"/>
<path d="M67.4863 85.5947C67.7273 85.5947 67.8999 85.5816 68.0041 85.5556C68.1083 85.523 68.1767 85.4709 68.2092 85.3993C68.2418 85.3276 68.2581 85.2104 68.2581 85.0476V80.3484C68.2581 80.179 68.2418 80.0585 68.2092 79.9869C68.1767 79.9152 68.1083 79.8664 68.0041 79.8403C67.8999 79.8078 67.7273 79.7915 67.4863 79.7915V79.4691H70.5051C71.2085 79.4691 71.7393 79.6059 72.0976 79.8794C72.4558 80.153 72.6349 80.5438 72.6349 81.0518C72.6349 81.5077 72.4981 81.8757 72.2246 82.1558C71.951 82.4293 71.583 82.6019 71.1206 82.6735V82.6931C71.5309 82.7908 71.8207 82.9731 71.9901 83.2402C72.1594 83.5007 72.2799 83.8752 72.3516 84.3637L72.3809 84.5591C72.4265 84.8717 72.5209 85.1225 72.6642 85.3114C72.814 85.5002 73.0159 85.5947 73.2699 85.5947V85.9171H71.6775C71.4951 85.7738 71.3551 85.4742 71.2574 85.0183L70.9643 83.6701C70.9122 83.4095 70.808 83.2206 70.6516 83.1034C70.4953 82.9797 70.2739 82.9178 69.9873 82.9178H69.45V85.0476C69.45 85.2104 69.4663 85.3309 69.4988 85.409C69.5314 85.4807 69.5998 85.5295 69.704 85.5556C69.8082 85.5816 69.9775 85.5947 70.212 85.5947V85.9171H67.4863V85.5947ZM70.0362 82.527C70.4921 82.527 70.8275 82.4163 71.0424 82.1948C71.2639 81.9734 71.3746 81.638 71.3746 81.1886C71.3746 80.7326 71.2639 80.3972 71.0424 80.1823C70.821 79.9608 70.4856 79.8501 70.0362 79.8501C69.7952 79.8501 69.6356 79.8827 69.5574 79.9478C69.4858 80.0064 69.45 80.1074 69.45 80.2507V82.527H70.0362Z" fill="#123053"/>
<path d="M75.4805 85.5947H75.7735C75.9689 85.5947 76.0927 85.5621 76.1448 85.497C76.2034 85.4253 76.2327 85.2853 76.2327 85.0769V80.3484C76.2327 80.179 76.2164 80.0585 76.1839 79.9869C76.1513 79.9152 76.0829 79.8664 75.9787 79.8403C75.881 79.8143 75.7117 79.798 75.4707 79.7915V79.4691H77.5419L79.3297 84.1292H79.359L81.1371 79.4691H83.1399V79.7915C82.8989 79.798 82.7263 79.8143 82.6221 79.8403C82.5244 79.8664 82.4592 79.9152 82.4267 79.9869C82.3941 80.0585 82.3778 80.179 82.3778 80.3484V85.0476C82.3778 85.2104 82.3941 85.3309 82.4267 85.409C82.4592 85.4807 82.5276 85.5295 82.6318 85.5556C82.7361 85.5816 82.9054 85.5947 83.1399 85.5947V85.9171H80.4727V85.5947C80.7137 85.5947 80.8863 85.5816 80.9905 85.5556C81.0947 85.523 81.1599 85.4709 81.1859 85.3993C81.2185 85.3276 81.2348 85.2104 81.2348 85.0476V80.3484H81.2152L79.1148 85.9171H78.8119L76.6919 80.3484H76.6723V85.0769C76.6723 85.2397 76.6789 85.3537 76.6919 85.4188C76.7114 85.4839 76.7538 85.5295 76.8189 85.5556C76.8905 85.5816 77.0045 85.5947 77.1608 85.5947H77.6102V85.9171H75.4805V85.5947Z" fill="#123053"/>
</svg>
